<mxfile host="app.diagrams.net" modified="2023-10-06T13:56:52.527Z" agent="Mozilla/5.0 (Windows NT 10.0; Win64; x64) AppleWebKit/537.36 (KHTML, like Gecko) Chrome/117.0.0.0 Safari/537.36" etag="igDjnba6n4l8gm4v07BH" version="22.0.3" type="device">
  <diagram name="PÃ¡gina-1" id="eThch49joy0fXhkoc4AX">
    <mxGraphModel dx="794" dy="464" grid="1" gridSize="10" guides="1" tooltips="1" connect="1" arrows="1" fold="1" page="1" pageScale="1" pageWidth="827" pageHeight="1169" math="0" shadow="0">
      <root>
        <mxCell id="0" />
        <mxCell id="1" parent="0" />
        <mxCell id="2Pk6aKKPK-_B24RKaqXQ-1" value="Disciplina" style="rounded=0;whiteSpace=wrap;html=1;fillColor=#dae8fc;strokeColor=#6c8ebf;" vertex="1" parent="1">
          <mxGeometry x="690" y="140" width="120" height="60" as="geometry" />
        </mxCell>
        <mxCell id="2Pk6aKKPK-_B24RKaqXQ-2" value="Professor" style="rounded=0;whiteSpace=wrap;html=1;fillColor=#dae8fc;strokeColor=#6c8ebf;" vertex="1" parent="1">
          <mxGeometry x="384" y="140" width="120" height="60" as="geometry" />
        </mxCell>
        <mxCell id="2Pk6aKKPK-_B24RKaqXQ-3" value="&lt;u&gt;Sigla_Disci&lt;/u&gt;" style="ellipse;whiteSpace=wrap;html=1;fillColor=#dae8fc;strokeColor=#6c8ebf;" vertex="1" parent="1">
          <mxGeometry x="690" y="210" width="70" height="30" as="geometry" />
        </mxCell>
        <mxCell id="2Pk6aKKPK-_B24RKaqXQ-7" value="nome" style="ellipse;whiteSpace=wrap;html=1;fillColor=#dae8fc;strokeColor=#6c8ebf;" vertex="1" parent="1">
          <mxGeometry x="690" y="250" width="70" height="30" as="geometry" />
        </mxCell>
        <mxCell id="2Pk6aKKPK-_B24RKaqXQ-12" value="&lt;u&gt;Cod_Iden&lt;/u&gt;" style="ellipse;whiteSpace=wrap;html=1;fillColor=#dae8fc;strokeColor=#6c8ebf;" vertex="1" parent="1">
          <mxGeometry x="384" y="210" width="70" height="30" as="geometry" />
        </mxCell>
        <mxCell id="2Pk6aKKPK-_B24RKaqXQ-13" value="Tem" style="rhombus;whiteSpace=wrap;html=1;fillColor=#ffe6cc;strokeColor=#d79b00;" vertex="1" parent="1">
          <mxGeometry x="560" y="130" width="80" height="80" as="geometry" />
        </mxCell>
        <mxCell id="2Pk6aKKPK-_B24RKaqXQ-14" value="Nome" style="ellipse;whiteSpace=wrap;html=1;fillColor=#dae8fc;strokeColor=#6c8ebf;" vertex="1" parent="1">
          <mxGeometry x="384" y="250" width="70" height="30" as="geometry" />
        </mxCell>
        <mxCell id="2Pk6aKKPK-_B24RKaqXQ-15" value="&lt;u&gt;Sigla_Disci&lt;/u&gt;" style="ellipse;whiteSpace=wrap;html=1;fillColor=#dae8fc;strokeColor=#6c8ebf;" vertex="1" parent="1">
          <mxGeometry x="384" y="290" width="70" height="30" as="geometry" />
        </mxCell>
        <mxCell id="2Pk6aKKPK-_B24RKaqXQ-16" value="Especialidade" style="ellipse;whiteSpace=wrap;html=1;fillColor=#dae8fc;strokeColor=#6c8ebf;" vertex="1" parent="1">
          <mxGeometry x="384" y="330" width="80" height="30" as="geometry" />
        </mxCell>
        <mxCell id="2Pk6aKKPK-_B24RKaqXQ-18" value="Data_admissao" style="ellipse;whiteSpace=wrap;html=1;fillColor=#dae8fc;strokeColor=#6c8ebf;" vertex="1" parent="1">
          <mxGeometry x="384" y="370" width="85" height="30" as="geometry" />
        </mxCell>
        <mxCell id="2Pk6aKKPK-_B24RKaqXQ-20" value="" style="endArrow=none;html=1;rounded=0;entryX=0;entryY=1;entryDx=0;entryDy=0;exitX=0;exitY=0.5;exitDx=0;exitDy=0;" edge="1" parent="1" source="2Pk6aKKPK-_B24RKaqXQ-12" target="2Pk6aKKPK-_B24RKaqXQ-2">
          <mxGeometry width="50" height="50" relative="1" as="geometry">
            <mxPoint x="380" y="370" as="sourcePoint" />
            <mxPoint x="430" y="320" as="targetPoint" />
          </mxGeometry>
        </mxCell>
        <mxCell id="2Pk6aKKPK-_B24RKaqXQ-21" value="" style="endArrow=none;html=1;rounded=0;entryX=0;entryY=0.5;entryDx=0;entryDy=0;exitX=0;exitY=0.5;exitDx=0;exitDy=0;" edge="1" parent="1" source="2Pk6aKKPK-_B24RKaqXQ-14" target="2Pk6aKKPK-_B24RKaqXQ-12">
          <mxGeometry width="50" height="50" relative="1" as="geometry">
            <mxPoint x="380" y="370" as="sourcePoint" />
            <mxPoint x="430" y="320" as="targetPoint" />
          </mxGeometry>
        </mxCell>
        <mxCell id="2Pk6aKKPK-_B24RKaqXQ-22" value="" style="endArrow=none;html=1;rounded=0;entryX=0;entryY=0.5;entryDx=0;entryDy=0;exitX=0;exitY=0.5;exitDx=0;exitDy=0;" edge="1" parent="1" source="2Pk6aKKPK-_B24RKaqXQ-15" target="2Pk6aKKPK-_B24RKaqXQ-14">
          <mxGeometry width="50" height="50" relative="1" as="geometry">
            <mxPoint x="380" y="370" as="sourcePoint" />
            <mxPoint x="430" y="320" as="targetPoint" />
          </mxGeometry>
        </mxCell>
        <mxCell id="2Pk6aKKPK-_B24RKaqXQ-23" value="" style="endArrow=none;html=1;rounded=0;entryX=0;entryY=0.5;entryDx=0;entryDy=0;exitX=0;exitY=0.5;exitDx=0;exitDy=0;" edge="1" parent="1" source="2Pk6aKKPK-_B24RKaqXQ-16" target="2Pk6aKKPK-_B24RKaqXQ-15">
          <mxGeometry width="50" height="50" relative="1" as="geometry">
            <mxPoint x="364" y="400" as="sourcePoint" />
            <mxPoint x="414" y="350" as="targetPoint" />
          </mxGeometry>
        </mxCell>
        <mxCell id="2Pk6aKKPK-_B24RKaqXQ-25" value="" style="endArrow=none;html=1;rounded=0;entryX=0;entryY=0.5;entryDx=0;entryDy=0;exitX=0;exitY=0.5;exitDx=0;exitDy=0;" edge="1" parent="1" source="2Pk6aKKPK-_B24RKaqXQ-18" target="2Pk6aKKPK-_B24RKaqXQ-16">
          <mxGeometry width="50" height="50" relative="1" as="geometry">
            <mxPoint x="330" y="440" as="sourcePoint" />
            <mxPoint x="380" y="390" as="targetPoint" />
          </mxGeometry>
        </mxCell>
        <mxCell id="2Pk6aKKPK-_B24RKaqXQ-26" value="" style="endArrow=none;html=1;rounded=0;entryX=0;entryY=1;entryDx=0;entryDy=0;exitX=0;exitY=0.5;exitDx=0;exitDy=0;" edge="1" parent="1" source="2Pk6aKKPK-_B24RKaqXQ-3" target="2Pk6aKKPK-_B24RKaqXQ-1">
          <mxGeometry width="50" height="50" relative="1" as="geometry">
            <mxPoint x="590" y="330" as="sourcePoint" />
            <mxPoint x="640" y="280" as="targetPoint" />
          </mxGeometry>
        </mxCell>
        <mxCell id="2Pk6aKKPK-_B24RKaqXQ-27" value="" style="endArrow=none;html=1;rounded=0;entryX=0;entryY=0.5;entryDx=0;entryDy=0;exitX=0;exitY=0.5;exitDx=0;exitDy=0;" edge="1" parent="1" source="2Pk6aKKPK-_B24RKaqXQ-7" target="2Pk6aKKPK-_B24RKaqXQ-3">
          <mxGeometry width="50" height="50" relative="1" as="geometry">
            <mxPoint x="590" y="330" as="sourcePoint" />
            <mxPoint x="640" y="280" as="targetPoint" />
          </mxGeometry>
        </mxCell>
        <mxCell id="2Pk6aKKPK-_B24RKaqXQ-28" value="" style="endArrow=none;html=1;rounded=0;entryX=1;entryY=0.5;entryDx=0;entryDy=0;exitX=0;exitY=0.5;exitDx=0;exitDy=0;" edge="1" parent="1" source="2Pk6aKKPK-_B24RKaqXQ-1" target="2Pk6aKKPK-_B24RKaqXQ-13">
          <mxGeometry width="50" height="50" relative="1" as="geometry">
            <mxPoint x="590" y="330" as="sourcePoint" />
            <mxPoint x="640" y="280" as="targetPoint" />
          </mxGeometry>
        </mxCell>
        <mxCell id="2Pk6aKKPK-_B24RKaqXQ-31" value="1,N&lt;br&gt;" style="edgeLabel;html=1;align=center;verticalAlign=middle;resizable=0;points=[];" vertex="1" connectable="0" parent="2Pk6aKKPK-_B24RKaqXQ-28">
          <mxGeometry x="0.2133" y="-1" relative="1" as="geometry">
            <mxPoint as="offset" />
          </mxGeometry>
        </mxCell>
        <mxCell id="2Pk6aKKPK-_B24RKaqXQ-29" value="" style="endArrow=none;html=1;rounded=0;entryX=1;entryY=0.5;entryDx=0;entryDy=0;exitX=0;exitY=0.5;exitDx=0;exitDy=0;" edge="1" parent="1" source="2Pk6aKKPK-_B24RKaqXQ-13" target="2Pk6aKKPK-_B24RKaqXQ-2">
          <mxGeometry width="50" height="50" relative="1" as="geometry">
            <mxPoint x="590" y="330" as="sourcePoint" />
            <mxPoint x="640" y="280" as="targetPoint" />
          </mxGeometry>
        </mxCell>
        <mxCell id="2Pk6aKKPK-_B24RKaqXQ-30" value="1,N" style="edgeLabel;html=1;align=center;verticalAlign=middle;resizable=0;points=[];" vertex="1" connectable="0" parent="2Pk6aKKPK-_B24RKaqXQ-29">
          <mxGeometry x="0.2473" y="1" relative="1" as="geometry">
            <mxPoint as="offset" />
          </mxGeometry>
        </mxCell>
        <mxCell id="2Pk6aKKPK-_B24RKaqXQ-32" value="ementa" style="ellipse;whiteSpace=wrap;html=1;fillColor=#dae8fc;strokeColor=#6c8ebf;" vertex="1" parent="1">
          <mxGeometry x="690" y="290" width="70" height="30" as="geometry" />
        </mxCell>
        <mxCell id="2Pk6aKKPK-_B24RKaqXQ-33" value="" style="endArrow=none;html=1;rounded=0;entryX=0;entryY=0.5;entryDx=0;entryDy=0;exitX=0;exitY=0.5;exitDx=0;exitDy=0;" edge="1" parent="1" source="2Pk6aKKPK-_B24RKaqXQ-32" target="2Pk6aKKPK-_B24RKaqXQ-7">
          <mxGeometry width="50" height="50" relative="1" as="geometry">
            <mxPoint x="590" y="330" as="sourcePoint" />
            <mxPoint x="640" y="280" as="targetPoint" />
          </mxGeometry>
        </mxCell>
      </root>
    </mxGraphModel>
  </diagram>
</mxfile>
